PathFileType	4	(X/Y/Z)	C:/Users/beibeiliu/ov580/test_trc/User1\sequence.16_training_dense_right.trc
DataRate	CameraRate	NumFrames	NumMarkers	Units	OrigDataRate	OrigDataStartFrame	OrigNumFrames
120	120	14	19	mm	120	68	268
Frame#	Time	ThumbCMC			ThumbMCP			ThumbIP			ThumbTip			IndexMCP			IndexPIP			IndexTip			MiddleMCP			MiddlePIP			MiddleTip			RingMCP			RingPIP			RingTip			PinkyMCP			PinkyPIP			PinkyTip			BackHand1			BackHand2			BackHand3	
		X0	Y0	Z0	X1	Y1	Z1	X2	Y2	Z2	X3	Y3	Z3	X4	Y4	Z4	X5	Y5	Z5	X6	Y6	Z6	X7	Y7	Z7	X8	Y8	Z8	X9	Y9	Z9	X10	Y10	Z10	X11	Y11	Z11	X12	Y12	Z12	X13	Y13	Z13	X14	Y14	Z14	X15	Y15	Z15	X16	Y16	Z16	X17	Y17	Z17	X18	Y18	Z18	
67	0.558333	209.131	92.6854	80.4499	231.377	103.086	67.4209	258.255	105.89	60.1436	275.522	117.899	58.7865	254.1	68.8565	8.56317	232.48	86.1843	-8.58807	210.202	86.7355	20.1424	240.112	55.3538	-2.65972	215.744	73.5387	-13.7028	193.522	79.404	18.0654	226.597	32.9485	-5.61359	209.051	59.1055	-20.9682	189.147	68.8463	4.69113	211.285	5.35123	7.18444	225.777	-0.543702	-8.95913	236.635	-13.1595	-20.0979	206.704	22.1297	54.8711	180.27	27.273	79.4849	217.961	53.0815	76.942	
68	0.566667	201.421	97.9891	79.014	220.184	112.003	67.3539	247.446	125.605	64.1526	263.157	136.727	60.6241	252.491	81.0589	12.2942	228.988	90.4434	-9.54569	206.151	94.3493	18.0857	240.472	62.4214	-3.39803	213.862	78.2347	-12.7109	189.767	81.1443	18.7357	232.211	41.2025	-6.18319	211.657	64.0848	-19.9653	188.219	71.5026	6.82463	224.386	12.9166	8.71678	234.654	10.4756	-3.65285	255.481	-1.1202	-18.7939	214.011	29.8523	56.9125	188.801	29.7632	77.7571	216.386	56.9809	76.0624	
69	0.575	194.311	98.0753	74.8988	207.442	119.11	66.0049	232.311	137.266	62.287	240.91	152.775	59.2302	246.148	100.425	9.47772	220.953	102.352	-9.26764	197.358	98.4248	16.6283	241.183	76.3193	0.194142	210.955	87.0691	-12.8411	184.799	79.5514	17.234	237.939	52.8478	-2.94443	213.65	69.4591	-19.5315	186.365	66.9737	3.70698	238.23	25.1259	10.243	245.622	18.1534	-2.20297	265.746	13.7407	-14.2314	222.848	35.5401	55.8065	193.746	36.3519	81.2921	212.285	69.5007	78.5777	
70	0.583333	181.354	98.4451	74.2747	193.33	123.16	62.8493	208.807	147.205	61.999	216.842	164.843	58.6159	235.509	109.505	6.49472	209.654	107.717	-10.5535	186.55	100.398	18.5569	237.262	84.3058	-0.0651513	206.775	91.59	-14.4755	179.599	79.094	12.2396	238.992	66.7594	-1.45958	212.248	73.9711	-20.8383	185.726	70.9571	2.26864	247.546	37.1727	12.1539	259.628	33.8169	-2.48801	277.568	35.2017	-9.63723	228.269	46.0566	55.2678	203.293	38.908	78.6441	213.229	75.0106	78.6153	
71	0.591667	171.287	96.5297	72.5388	173.283	122.74	63.6317	188.27	146.188	55.7319	189.75	169.536	55.6708	220.62	119.397	7.33841	196.554	105.233	-11.8929	175.899	96.0934	11.7969	226.049	97.6894	-2.15569	197.677	91.7449	-16.3715	171.849	78.2498	14.9576	235.056	76.6091	-3.41338	208.737	71.8358	-21.1358	182.183	65.9799	4.03688	247.742	48.0254	13.9053	260.337	51.686	1.20303	278.609	53.7824	-9.96003	228.869	55.2661	59.8092	203.19	42.3377	83.1861	202.619	80.1525	77.9951	
72	0.6	158.422	87.7341	72.1341	159.285	116.64	59.0549	165.601	141.681	53.04	161.711	162.689	51.0833	205.517	121.36	7.15564	182.874	102.024	-14.4557	167.714	86.7309	13.1176	216.252	101.646	-2.60249	189.468	85.0822	-17.6368	168.449	71.2717	10.4006	229.967	85.1065	-1.70288	201.17	76.1345	-20.9956	182.536	59.3118	2.32526	246.758	62.0892	15.5598	260.658	66.9494	-2.70024	281.195	70.2668	-12.8717	226.626	66.0395	60.1726	210.453	48.7466	81.3722	196.924	88.0309	75.4255	
73	0.608333	152.776	83.1081	68.832	141.52	107.329	58.3805	144.43	131.793	48.883	137.536	151.14	46.892	187.537	121.327	1.76443	169.51	100.713	-18.1436	158.011	79.2727	6.84186	204.279	104.947	-5.17863	183.822	84.2637	-20.2667	165.175	64.0499	8.43834	220.974	90.9437	-3.37287	197.851	70.8733	-24.0808	180.668	55.6017	1.17478	243.786	70.1139	12.4366	256.285	73.1624	-3.89886	275.479	84.2506	-15.2681	220.231	76.0384	56.0867	206.795	53.2493	82.2742	186.622	86.44	74.5783	
74	0.616667	146.427	75.2208	66.509	135.336	99.6721	53.2629	130.617	122.244	45.3301	122.045	142.106	39.5583	174.681	116.261	-2.60015	160.933	90.5038	-21.6916	155.605	70.222	6.06241	193.699	102.568	-9.64449	176.428	75.6788	-22.7777	164.058	55.5305	5.99149	213.912	91.1094	-7.45414	190.691	65.7303	-24.6814	178.326	51.0852	-2.22668	239.109	75.111	8.70559	251.013	80.2993	-9.11091	265.794	92.5912	-20.6578	218.083	78.9872	52.1143	205.494	55.5478	80.4842	182.566	88.4845	69.5351	
75	0.625	142.91	72.4271	66.4892	126.781	92.099	55.2602	119.764	115.156	45.1725	108.488	136.411	39.2808	165.871	111.154	-7.2097	155.608	85.1098	-22.6619	146.989	65.6268	4.97386	186.059	102.417	-9.54907	167.807	72.4363	-24.228	160.181	52.501	10.8769	206.479	88.5331	-14.8212	187.558	68.1396	-28.0029	176.127	48.8548	-1.10558	234.517	76.7527	6.87183	243.372	79.835	-8.12721	260.311	92.7216	-22.4851	214.27	80.3616	50.1782	204.491	57.0493	77.7076	177.03	88.6219	68.9355	
76	0.633333	141.13	69.2219	68.1298	124.705	93.2149	53.9285	116.354	112.702	43.1137	101.234	129.62	38.3063	164.76	109.905	-4.94905	150.343	83.9515	-23.7089	147.387	61.3835	8.76328	181.703	99.6436	-12.2314	166.653	68.6046	-24.1742	158.002	51.322	8.58615	202.335	90.0591	-11.8108	183.476	63.0142	-27.4561	174.446	47.6197	-0.825013	230.585	78.6428	5.1264	239.635	81.9148	-9.73429	255.079	96.6703	-24.7503	208.349	78.198	52.2875	207.227	60.2888	77.1328	175.694	82.9209	71.0817	
77	0.641667	139.479	70.2953	68.7882	124.233	87.0636	52.901	113.651	110.036	43.7698	98.7542	126.87	36.0879	157.013	109.481	-8.41751	149.695	81.5835	-22.2326	147.815	60.1275	6.94895	180.848	97.9982	-12.8107	163.395	71.3119	-23.8064	160.093	49.4707	9.93751	202.962	87.7996	-16.8336	182.289	67.2384	-27.4948	171.505	48.9215	-2.27564	232.379	75.984	4.63402	241.294	81.3329	-12.1749	256.023	94.2541	-27.8477	208.207	80.5286	49.5887	206.266	59.6502	75.4671	177.212	83.6479	68.293	
78	0.65	137.893	69.5802	70.3839	120.866	86.1752	55.4013	110.506	114.582	43.3414	100.36	128.986	33.1037	159.776	110.39	-3.2384	147.823	84.6546	-22.8099	146.856	61.77	6.38528	181.188	101.538	-8.85938	167.504	70.8156	-24.2656	158.965	50.7687	8.33096	202.639	89.8438	-13.6204	184.462	64.4391	-27.532	173.804	49.8141	0.109813	232.131	79.3422	2.93341	240.313	81.8938	-9.16965	252.413	97.1488	-23.719	207.354	82.7167	52.9213	201.586	61.6267	80.9948	175.253	85.7185	68.8256	
79	0.658333	137.478	71.7741	69.6376	120.435	89.673	56.5244	112.208	108.309	44.5579	100.889	127.773	35.4001	155.418	113.024	-5.00097	150.61	84.4588	-21.0242	142.819	65.9036	6.9981	179.101	105.078	-7.81026	165.707	76.3486	-23.9041	156.696	53.8585	11.9529	200.989	95.1105	-7.99692	182.251	70.081	-26.6236	173.421	52.6663	2.45291	232.627	81.5139	6.07762	236.744	89.1841	-8.44158	254.854	99.4087	-23.2378	206.154	83.3024	55.5356	200.638	64.4827	80.4636	172.01	85.3654	71.462	
80	0.666667	136.703	71.9419	72.5048	119.728	92.9366	57.001	110.338	113.046	46.6663	94.9581	128.881	40.7823	158.392	116.62	-2.75758	148.235	89.9342	-19.5937	143.868	68.4435	9.02119	179.859	106.741	-6.96917	166.575	78.247	-22.5231	155.383	57.4076	9.27836	201.24	98.8182	-6.30341	182.971	76.5027	-24.8074	171.115	56.1455	1.33893	228.786	86.7918	9.54701	239.218	91.2911	-7.88863	253.664	103.717	-24.0273	203.848	85.5423	57.5113	200.142	63.7028	81.3833	170.795	86.3037	73.452	
